<?xml version="1.0" encoding="UTF-8" standalone="no"?>
<!-- Created with Inkscape (http://www.inkscape.org/) -->

<svg
   xmlns:dc="http://purl.org/dc/elements/1.1/"
   xmlns:cc="http://creativecommons.org/ns#"
   xmlns:rdf="http://www.w3.org/1999/02/22-rdf-syntax-ns#"
   xmlns:svg="http://www.w3.org/2000/svg"
   xmlns="http://www.w3.org/2000/svg"
   xmlns:sodipodi="http://sodipodi.sourceforge.net/DTD/sodipodi-0.dtd"
   xmlns:inkscape="http://www.inkscape.org/namespaces/inkscape"
   width="210mm"
   height="297mm"
   viewBox="0 0 744.09448819 1052.3622047"
   id="svg2"
   version="1.1"
   inkscape:version="0.91 r13725"
   sodipodi:docname="iconsLD35.svg">
  <defs
     id="defs4">
    <inkscape:perspective
       sodipodi:type="inkscape:persp3d"
       inkscape:vp_x="0 : 526.1811 : 1"
       inkscape:vp_y="0 : 1000 : 0"
       inkscape:vp_z="744.09449 : 526.1811 : 1"
       inkscape:persp3d-origin="372.04724 : 350.7874 : 1"
       id="perspective4182" />
  </defs>
  <sodipodi:namedview
     id="base"
     pagecolor="#ffffff"
     bordercolor="#666666"
     borderopacity="1.0"
     inkscape:pageopacity="0.0"
     inkscape:pageshadow="2"
     inkscape:zoom="0.7"
     inkscape:cx="-790.82451"
     inkscape:cy="618.13273"
     inkscape:document-units="px"
     inkscape:current-layer="layer1"
     showgrid="false"
     inkscape:snap-global="false"
     inkscape:window-width="2560"
     inkscape:window-height="1017"
     inkscape:window-x="1912"
     inkscape:window-y="-8"
     inkscape:window-maximized="1" />
  <metadata
     id="metadata7">
    <rdf:RDF>
      <cc:Work
         rdf:about="">
        <dc:format>image/svg+xml</dc:format>
        <dc:type
           rdf:resource="http://purl.org/dc/dcmitype/StillImage" />
        <dc:title />
      </cc:Work>
    </rdf:RDF>
  </metadata>
  <g
     inkscape:label="Ebene 1"
     inkscape:groupmode="layer"
     id="layer1">
    <path
       sodipodi:nodetypes="cccccccccc"
       inkscape:connector-curvature="0"
       id="path4159"
       d="m 1099.8589,1040.8846 -32.4031,12.4679 5.896,31.8518 -46.3302,22.0597 29.0592,-30.2537 -11.5108,-26.188 33.8011,-29.1921 -2.829,-32.86359 30.7435,-6.92289 z"
       style="fill:#eee31b;fill-opacity:1;fill-rule:evenodd;stroke:none;stroke-width:1px;stroke-linecap:butt;stroke-linejoin:miter;stroke-opacity:1"
       inkscape:export-xdpi="114.95562"
       inkscape:export-ydpi="114.95562" />
    <path
       sodipodi:nodetypes="cccccccccc"
       inkscape:connector-curvature="0"
       id="path4157"
       d="m 1292.6422,1000.2482 -3.095,40.5269 33.9006,11.3924 5.1,33.2321 -26.9622,-16.6187 -38.0164,1.4473 -8.3752,-53.5176 -39.2373,-11.9167 14.5858,-39.56127 z"
       style="fill:#eee31b;fill-opacity:1;fill-rule:evenodd;stroke:none;stroke-width:1px;stroke-linecap:butt;stroke-linejoin:miter;stroke-opacity:1"
       inkscape:export-xdpi="114.95562"
       inkscape:export-ydpi="114.95562" />
    <path
       style="fill:#eee31b;fill-opacity:1;fill-rule:evenodd;stroke:none;stroke-width:1px;stroke-linecap:butt;stroke-linejoin:miter;stroke-opacity:1"
       d="m 1136.0777,1062.859 40.9386,24.6428 -25.0914,33.9286 56.3455,40 -26.8521,-43.5714 30.3737,-25.7143 -34.3355,-43.9286 21.1295,-36.0714 -41.3787,-17.85711 z"
       id="path4155"
       inkscape:connector-curvature="0"
       sodipodi:nodetypes="cccccccccc"
       inkscape:export-xdpi="114.95562"
       inkscape:export-ydpi="114.95562" />
    <path
       style="fill:#9d1c1c;fill-opacity:1;fill-rule:evenodd;stroke:none;stroke-width:1px;stroke-linecap:butt;stroke-linejoin:miter;stroke-opacity:1"
       d="m 127.65049,472.0812 c 0,0 -71.090654,-53.88832 -73.472464,-103.64322 2.4887,-58.19366 45.62216,-98.42225 25.82197,-156.07578 21.993854,20.90514 31.264674,29.02267 33.571434,57.85715 32.76622,-55.73663 39.67324,-110.52116 24.28572,-182.857149 77.00729,38.346069 82.10463,117.387479 94.28571,149.285719 19.0844,-21.93459 13.63693,-29.33813 12.85714,-59.28571 0,0 131.76033,236.09065 -7.23822,290.15844 13.13903,-79.91816 15.64255,-150.18652 -49.558,-197.06236 -5.73454,40.40243 -20.35696,73.61561 -50.74403,94.68927 2.75827,-20.52206 4.82008,-28.34966 -2.19362,-48.59246 -45.849634,59.72458 -34.44641,82.90921 -7.61564,155.5261 z"
       id="path4141"
       inkscape:connector-curvature="0"
       sodipodi:nodetypes="cccccccccccc"
       inkscape:export-xdpi="114.95562"
       inkscape:export-ydpi="114.95562" />
    <path
       style="fill:#5693bb;fill-opacity:1;fill-rule:evenodd;stroke:none;stroke-width:1px;stroke-linecap:butt;stroke-linejoin:miter;stroke-opacity:1"
       d="m 458.7318,298.58535 c 0,0 -60.75755,10.82231 -75.14868,-35.32561 -14.80566,-47.47717 39.88616,-87.58379 68.96522,-71.58596 0,0 7.61549,-44.01603 48.87599,-57.62944 39.86514,-13.15302 69.98409,9.3575 81.81005,23.16171 0,0 70.76374,-31.33113 108.02685,22.32849 37.2631,53.65963 -19.57288,155.36554 -94.67079,135.16249 0,0 -7.77303,22.5069 -63.15812,27.6715 -58.47433,5.45267 -74.70052,-43.78318 -74.70052,-43.78318 z"
       id="path4145"
       inkscape:connector-curvature="0"
       sodipodi:nodetypes="cscsczcsc"
       inkscape:export-xdpi="114.95562"
       inkscape:export-ydpi="114.95562" />
    <path
       style="fill:#5693bb;fill-opacity:1;fill-rule:evenodd;stroke:none;stroke-width:1px;stroke-linecap:butt;stroke-linejoin:miter;stroke-opacity:1"
       d="m 444.6059,319.83102 c -9.98163,33.11683 -79.49491,77.56452 -29.34264,92.08129 50.15225,14.51677 21.31147,-51.67172 29.34264,-92.08129 z"
       id="path4147"
       inkscape:connector-curvature="0"
       sodipodi:nodetypes="czc"
       inkscape:export-xdpi="114.95562"
       inkscape:export-ydpi="114.95562" />
    <path
       sodipodi:nodetypes="czc"
       inkscape:connector-curvature="0"
       id="path4149"
       d="m 530.40557,385.32096 c -9.98163,33.11683 -79.49491,77.56452 -29.34264,92.08129 50.15225,14.51677 21.31147,-51.67172 29.34264,-92.08129 z"
       style="fill:#5693bb;fill-opacity:1;fill-rule:evenodd;stroke:none;stroke-width:1px;stroke-linecap:butt;stroke-linejoin:miter;stroke-opacity:1"
       inkscape:export-xdpi="114.95562"
       inkscape:export-ydpi="114.95562" />
    <path
       style="fill:#5693bb;fill-opacity:1;fill-rule:evenodd;stroke:none;stroke-width:1px;stroke-linecap:butt;stroke-linejoin:miter;stroke-opacity:1"
       d="m 646.01564,327.45586 c -9.98163,33.11683 -79.4949,77.56452 -29.34263,92.08129 50.15225,14.51677 21.31147,-51.67172 29.34263,-92.08129 z"
       id="path4151"
       inkscape:connector-curvature="0"
       sodipodi:nodetypes="czc"
       inkscape:export-xdpi="114.95562"
       inkscape:export-ydpi="114.95562" />
    <path
       sodipodi:nodetypes="cscsczcsc"
       inkscape:connector-curvature="0"
       id="path4153"
       d="m 1106.9524,1004.0822 c 0,0 -60.7576,10.8223 -75.1487,-35.32566 -14.8057,-47.47717 39.8862,-87.58379 68.9652,-71.58596 0,0 7.6155,-44.01603 48.876,-57.62944 39.8652,-13.15302 69.9841,9.3575 81.8101,23.16171 0,0 70.7637,-31.33113 108.0268,22.32849 37.2631,53.65963 -19.5729,155.36546 -94.6708,135.16246 0,0 -7.773,22.5069 -63.1581,27.6715 -58.4743,5.4527 -74.7005,-43.7831 -74.7005,-43.7831 z"
       style="fill:#5b5b5b;fill-opacity:1;fill-rule:evenodd;stroke:none;stroke-width:1px;stroke-linecap:butt;stroke-linejoin:miter;stroke-opacity:1"
       inkscape:export-xdpi="114.95562"
       inkscape:export-ydpi="114.95562" />
    <circle
       style="opacity:1;fill:#312a1a;fill-opacity:1;fill-rule:nonzero;stroke:none;stroke-width:0.1;stroke-linecap:round;stroke-linejoin:round;stroke-miterlimit:4;stroke-dasharray:none;stroke-dashoffset:0;stroke-opacity:1"
       id="path4172"
       cx="243.22119"
       cy="709.36151"
       r="78.571426"
       inkscape:export-xdpi="114.95562"
       inkscape:export-ydpi="114.95562" />
    <path
       style="fill:#312a1a;fill-opacity:1;fill-rule:evenodd;stroke:none;stroke-width:1px;stroke-linecap:butt;stroke-linejoin:miter;stroke-opacity:1"
       d="M -98.699367,525.22976 C -11.53966,572.08042 108.28269,714.75743 142.74299,659.9521 177.2033,605.14678 10.017369,570.76671 -98.699367,525.22976 Z"
       id="path4174"
       inkscape:connector-curvature="0"
       sodipodi:nodetypes="czc"
       inkscape:export-xdpi="114.95562"
       inkscape:export-ydpi="114.95562" />
    <path
       sodipodi:nodetypes="czc"
       inkscape:connector-curvature="0"
       id="path4176"
       d="M 13.250269,663.96778 C 54.493713,686.13723 111.19292,753.65111 127.49932,727.71757 143.80573,701.78403 64.694367,685.51559 13.250269,663.96778 Z"
       style="fill:#312a1a;fill-opacity:1;fill-rule:evenodd;stroke:none;stroke-width:1px;stroke-linecap:butt;stroke-linejoin:miter;stroke-opacity:1"
       inkscape:export-xdpi="114.95562"
       inkscape:export-ydpi="114.95562" />
    <path
       style="fill:#312a1a;fill-opacity:1;fill-rule:evenodd;stroke:none;stroke-width:1px;stroke-linecap:butt;stroke-linejoin:miter;stroke-opacity:1"
       d="M 36.961053,519.68207 C 96.830674,551.86358 179.13612,649.86777 202.80675,612.22225 226.47738,574.57672 111.6381,550.96119 36.961053,519.68207 Z"
       id="path4178"
       inkscape:connector-curvature="0"
       sodipodi:nodetypes="czc"
       inkscape:export-xdpi="114.95562"
       inkscape:export-ydpi="114.95562" />
    <path
       inkscape:export-ydpi="114.95562"
       inkscape:export-xdpi="114.95562"
       sodipodi:nodetypes="cccccccccc"
       inkscape:connector-curvature="0"
       id="path4180"
       d="m 479.69978,687.49821 81.77084,18.31762 -34.87037,57.79375 114.43634,33.77419 -62.1574,-50.59568 46.98695,-48.34321 -87.85779,-55.79068 9.76,-90.58345 -108.07685,41.99543 z"
       style="fill:#ddd004;fill-opacity:1;fill-rule:evenodd;stroke:none;stroke-width:1px;stroke-linecap:butt;stroke-linejoin:miter;stroke-opacity:1" />
    <path
       sodipodi:type="star"
       style="opacity:1;fill:#ededed;fill-opacity:1;fill-rule:nonzero;stroke:none;stroke-width:0.1;stroke-linecap:round;stroke-linejoin:round;stroke-miterlimit:4;stroke-dasharray:none;stroke-dashoffset:0;stroke-opacity:1"
       id="path4228"
       sodipodi:sides="6"
       sodipodi:cx="-561.42855"
       sodipodi:cy="630.93365"
       sodipodi:r1="159.14311"
       sodipodi:r2="137.82198"
       sodipodi:arg1="0.52359878"
       sodipodi:arg2="1.0471976"
       inkscape:flatsided="true"
       inkscape:rounded="0"
       inkscape:randomized="0"
       d="m -423.60655,710.50521 -137.82198,79.57156 -137.82198,-79.57156 0,-159.14311 137.82198,-79.57156 137.82198,79.57156 z"
       inkscape:export-xdpi="114"
       inkscape:export-ydpi="114" />
    <path
       style="fill:#000000;fill-opacity:1;fill-rule:evenodd;stroke:none;stroke-width:1px;stroke-linecap:butt;stroke-linejoin:miter;stroke-opacity:1"
       d="m -590.62261,-14.253554 c 8.92716,10.1833718 6.96725,19.3770136 9.79192,29.005609 -21.81216,12.398992 -53.70994,3.272924 -57.60836,29.107237 -24.13887,6.966495 -54.42659,5.365482 -72.33801,21.89938 0.19484,18.135597 8.18506,40.707088 13.27428,35.837828 2.41773,-2.714071 5.00405,-5.109931 7.69963,-7.251411 0.45347,1.58187 1.17973,3.18574 2.35544,4.44594 3.53869,3.793011 5.85773,3.983191 5.85773,3.983191 -0.29158,-1.57903 -1.95692,-7.834011 -2.35362,-12.584711 1.40795,-0.8849 2.83496,-1.710808 4.27717,-2.480645 0.45664,1.527145 1.17407,3.063295 2.30826,4.278975 3.53869,3.79301 5.85774,3.98138 5.85774,3.98138 -0.26239,-1.42093 -1.6253,-6.62121 -2.18849,-11.113007 17.8981,-7.63481 36.71219,-7.992591 45.86748,-9.14228 13.5172,-1.697454 1.66042,33.182958 1.66042,33.182958 -6.39928,9.06976 -16.0403,16.08484 -36.56732,13.93482 -1.79903,-4.77927 -2.87813,-12.51435 -3.27366,-14.30138 0,0 -2.17899,1.14008 -4.06123,6.29145 -0.82281,2.25192 -0.65103,4.76854 -0.1978,6.88848 -0.89658,-0.16873 -1.81318,-0.35253 -2.74558,-0.55167 -1.68675,-4.80221 -2.70331,-12.07631 -3.08493,-13.80053 0,0 -2.17899,1.13826 -4.06122,6.28964 -0.66928,1.83168 -0.67477,3.83565 -0.41194,5.66174 -0.80963,-0.22131 -1.61968,-0.44398 -2.45342,-0.68594 -9.91149,10.76013 -1.15396,26.22268 5.42222,28.76427 36.79805,-3.73349 50.38067,-11.90799 73.97847,-23.18054 23.59779,-11.27255 142.49546,21.17182 89.62995,115.26573 -63.69939,113.37681 -205.41649,20.73437 -205.41649,20.73437 44.43957,44.9848 63.62912,62.41521 147.32905,57.07485 -17.4147,12.92475 -34.64548,17.94721 -88.92949,18.58218 79.03989,12.78115 100.95092,13.13096 160.60333,-32.5188 -2.41186,12.20256 -11.45855,24.47851 -27.87326,43.80057 52.84815,-26.60266 75.86695,-37.80705 73.66634,-94.23739 18.55055,24.52133 16.27087,32.22948 7.29858,65.69996 53.61684,-42.66914 50.43733,-92.46765 37.16435,-140.69281 23.72871,17.61922 20.15961,39.33924 21.90119,72.338 24.94382,-50.38371 7.7418,-102.4242 -12.61011,-136.0491 19.15467,8.919 22.86997,20.93782 31.85645,45.79308 17.82627,-66.043791 -75.01791,-148.733884 -178.79172,-143.396666 -20.48898,-11.9230854 -10.90227,-19.7617983 -42.83335,-30.854758 z m -0.28673,46.179607 c 5.32464,-0.04646 10.13128,0.324826 10.13128,0.324826 0,0 -7.35243,8.599086 -11.92961,9.986106 -4.57716,1.38702 -11.23452,-0.832286 -12.20543,-6.380366 -0.54614,-3.120793 7.15782,-3.870834 14.00376,-3.930566 z"
       id="path4162"
       inkscape:connector-curvature="0"
       sodipodi:nodetypes="ccccccscccsccscccscccscccsscccccccccccccscsss"
       inkscape:export-xdpi="99.126099"
       inkscape:export-ydpi="99.126099" />
    <path
       style="fill:#000000;fill-opacity:1;fill-rule:evenodd;stroke:none;stroke-width:1px;stroke-linecap:butt;stroke-linejoin:miter;stroke-opacity:1"
       d="m -1262.5757,-35.03938 c 70.8753,90.475838 37.6202,101.589748 -17.5952,124.367241 70.4007,0.980577 74.9189,53.136169 57.5843,77.180599 77.6878,-69.580856 112.1023,-37.46099 168.1642,-14.62418 -10.2414,24.22508 -20.7276,60.37241 -10.8709,92.5138 15.9209,51.91725 103.11827,25.02872 110.25763,63.73204 7.13948,38.70333 -61.32363,64.22835 -61.32363,64.22835 24.33199,1.01383 118.55724,-21.08293 115.60729,-62.19505 -2.98744,-41.63453 -16.91775,-59.38444 -71.58149,-82.31303 -31.228,-13.09853 -26.72793,-46.20856 -16.94803,-72.47817 61.57016,-22.68897 95.41384,-62.08735 177.16891,11.13624 -17.33468,-24.04443 -12.81423,-76.200022 57.58641,-77.180599 -55.21551,-22.777493 -88.47042,-33.891403 -17.59521,-124.367241 -34.56526,25.9778037 -84.14576,45.0210823 -136.3657,39.9889083 13.50189,54.2341117 -38.10413,103.0344117 -73.27421,109.5578117 32.207,-44.219118 0.36848,-88.889832 -10.58272,-91.008851 -2.85065,-14.0664867 11.49167,-20.584892 24.25093,-27.7982821 -14.93642,1.9419761 -36.84198,5.3090692 -40.81238,15.0838961 l -17.0027,-3.1059797 c -9.749,4.3346787 -15.1467,6.7915707 -14.9353,16.4127427 -3.8229,4.714946 -10.1652,6.241385 -17.1515,6.063293 -5.313,3.883071 -5.2803,8.587419 -17.0212,11.4816 0,0 -10.1223,-0.879287 -12.52,1.566713 -2.3977,2.446 0.4232,4.793216 -4.4324,6.591627 -0.7958,8.923769 4.9307,11.106249 11.2025,13.777921 0.5592,-0.462689 1.1836,-0.929308 1.8458,-1.397461 0.672,1.181335 1.7488,2.736634 3.1814,3.318685 2.3658,0.961123 3.7693,0.887422 3.7693,0.887422 0,0 -3.3464,-3.305384 -4.6338,-5.71564 0.6549,-0.399656 1.3409,-0.796156 2.0631,-1.191617 0.6763,1.013324 1.603,2.092079 2.7194,2.545621 2.3658,0.961124 3.7716,0.887424 3.7716,0.887424 0,0 -2.5011,-2.483396 -4.0096,-4.716148 9.7538,-4.76686 24.1695,-8.79586 40.0873,-8.814759 l -0.1486,8.576893 c -5.9772,5.39024 -25.567,14.080956 -38.8865,15.673985 l 8.5745,9.759361 c 0,0 22.8971,-15.672481 44.5954,-10.50269 23.68444,5.643015 -9.981,26.455398 -21.9294,41.864394 -33.1838,6.34895 -101.7745,-48.226987 -86.446,-109.7979617 -52.22,5.032174 -101.7982,-14.0111046 -136.3635,-39.9889083 z m 238.9728,52.598084 c 2.7525,0.07075 3.2616,3.126564 3.2616,3.126564 -3.1938,1.279306 -5.3642,3.821518 -10.0544,3.252358 0,0 1.5525,-5.174615 5.4709,-6.209671 0.4898,-0.129382 0.9288,-0.17936 1.3219,-0.169251 z"
       id="path4177"
       inkscape:connector-curvature="0"
       inkscape:export-xdpi="99.126099"
       inkscape:export-ydpi="99.126099" />
  </g>
</svg>
